<?xml version="1.0" standalone="no"?>
<!DOCTYPE svg PUBLIC "-//W3C//DTD SVG 20010904//EN"
 "http://www.w3.org/TR/2001/REC-SVG-20010904/DTD/svg10.dtd">
<svg version="1.0" xmlns="http://www.w3.org/2000/svg"
 width="160.000000pt" height="160.000000pt" viewBox="0 0 160.000000 160.000000"
 preserveAspectRatio="xMidYMid meet">
<metadata>
Created by potrace 1.11, written by Peter Selinger 2001-2013
</metadata>
<g transform="translate(0.000000,160.000000) scale(0.100000,-0.100000)"
fill="#000000" stroke="none">
<path d="M0 800 l0 -800 800 0 800 0 0 800 0 800 -800 0 -800 0 0 -800z m930
678 c19 -13 37 -35 42 -50 12 -34 -6 -103 -33 -126 -48 -42 -55 -47 -66 -48
-37 -3 -43 -5 -43 -14 0 -5 6 -10 14 -10 13 0 13 -6 -1 -45 -8 -25 -24 -50
-35 -56 -15 -8 -17 -13 -7 -25 6 -8 20 -14 31 -14 16 0 18 -3 9 -14 -9 -10 -8
-15 3 -19 9 -4 13 -20 12 -49 -3 -69 -70 -158 -139 -185 -28 -11 -63 -21 -77
-22 -27 -1 -69 16 -85 36 -5 6 -19 13 -30 15 -11 2 -24 13 -30 26 -5 12 -13
22 -17 22 -16 0 -7 19 12 25 15 5 20 15 20 42 0 84 81 173 158 173 41 0 62 9
62 27 0 8 9 34 20 59 l21 45 -21 26 c-25 32 -27 108 -4 142 43 60 126 78 184
39z m435 -533 c35 -26 55 -89 36 -108 -6 -6 -11 -19 -11 -29 0 -10 -7 -21 -15
-24 -10 -4 -14 -14 -10 -28 5 -15 4 -17 -3 -7 -8 11 -14 10 -37 -5 -26 -17
-28 -17 -37 0 -8 13 -13 15 -24 5 -8 -6 -14 -18 -14 -26 0 -11 -4 -11 -21 -3
-11 7 -22 10 -24 8 -7 -7 7 -48 16 -48 5 0 9 -22 9 -50 0 -27 -4 -50 -9 -50
-5 0 -11 -8 -14 -17 -2 -10 -8 -27 -13 -38 -7 -19 -7 -19 9 -3 20 19 47 14 97
-18 31 -20 40 -22 78 -13 116 26 189 -53 140 -151 -24 -46 -82 -94 -104 -86
-7 3 -14 0 -16 -5 -2 -6 -14 -6 -33 1 -36 12 -75 66 -75 103 0 22 -11 34 -55
62 -50 32 -61 49 -55 80 1 6 -11 -2 -27 -16 -33 -30 -73 -47 -127 -54 -101
-12 -177 111 -136 220 8 22 13 24 30 15 15 -8 27 -7 51 6 28 14 31 19 26 50
-8 46 16 58 101 51 l64 -5 -5 47 c-3 25 -1 62 5 82 21 74 137 105 203 54z
m-417 -527 c18 -39 24 -68 13 -68 -6 0 -11 -7 -11 -15 0 -8 -7 -15 -15 -15 -8
0 -15 -6 -15 -14 0 -8 7 -16 15 -20 17 -6 21 -46 5 -46 -5 0 -10 -7 -10 -16 0
-23 -78 -92 -112 -100 -72 -15 -135 62 -122 147 10 60 70 110 126 103 21 -2
34 5 55 31 33 40 55 44 71 13z"/>
</g>
</svg>
